<svg width="640" height="640" viewBox="0 0 640 640" fill="none" xmlns="http://www.w3.org/2000/svg">
  <defs>
    <linearGradient id="bg" x1="320" y1="40" x2="320" y2="600" gradientUnits="userSpaceOnUse">
      <stop stop-color="#DFF4EF" />
      <stop offset="1" stop-color="#8AD4C3" stop-opacity="0.9" />
    </linearGradient>
    <linearGradient id="coat" x1="320" y1="340" x2="320" y2="600" gradientUnits="userSpaceOnUse">
      <stop stop-color="#F8FAFB" />
      <stop offset="1" stop-color="#E2E9EE" />
    </linearGradient>
  </defs>
  <circle cx="320" cy="320" r="300" fill="#F6FBF9" />
  <circle cx="320" cy="230" r="170" fill="url(#bg)" />
  <path d="M190 340C190 257 248 200 320 200C392 200 450 257 450 340V360C450 408 411 447 363 447H277C229 447 190 408 190 360V340Z" fill="#F1F7F5" />
  <path d="M254 310C254 267 284 232 320 232C356 232 386 267 386 310C386 352 356 386 320 386C284 386 254 352 254 310Z" fill="#F0D7C3" />
  <path d="M230 360C230 316 268 280 316 280H324C372 280 410 316 410 360V406C410 441 381 470 346 470H294C259 470 230 441 230 406V360Z" fill="#F7E8DD" />
  <path d="M210 452C210 409 245 374 288 374H352C395 374 430 409 430 452V508C430 537 407 560 378 560H262C233 560 210 537 210 508V452Z" fill="url(#coat)" />
  <rect x="306" y="410" width="28" height="70" rx="8" fill="#8AD4C3" />
  <circle cx="272" cy="300" r="12" fill="#0B3A33" />
  <circle cx="368" cy="300" r="12" fill="#0B3A33" />
  <rect x="280" y="330" width="80" height="12" rx="6" fill="#0B3A33" opacity="0.6" />
  <path d="M240 266C240 220 280 184 330 184C380 184 420 220 420 266V274C420 302 397 324 370 324H290C263 324 240 302 240 274V266Z" fill="#D9C2AE" />
  <path d="M224 258C224 204 270 160 328 160H332C390 160 436 204 436 258V278C436 312 408 340 374 340H286C252 340 224 312 224 278V258Z" fill="#E4CDBA" />
  <path d="M268 210C268 196 279 185 293 185H347C361 185 372 196 372 210C372 222 362 232 349 233C329 235 311 235 291 233C278 232 268 222 268 210Z" fill="#0B3A33" />
</svg>
